<svg width="43" height="36" viewBox="0 0 43 36" fill="none" xmlns="http://www.w3.org/2000/svg">
<path d="M2.08781 26.3578C2.40866 26.5182 2.75411 26.6291 3.11039 26.6911L2.5553 27.4837C2.44311 27.6441 2.36995 27.8282 2.34108 28.0214L1.51468 33.5946C1.4448 34.0666 1.64722 34.5377 2.03827 34.8113C2.42966 35.0853 2.94144 35.1141 3.3607 34.8871L8.02808 32.3597C8.67273 33.5243 9.91413 34.315 11.3369 34.315C12.3041 34.315 13.1876 33.9498 13.8565 33.3505C14.5257 33.9498 15.4092 34.315 16.376 34.315C18.4602 34.315 20.1557 32.6195 20.1557 30.5357V30.0534C22.499 31.1938 25.1084 31.7954 27.7143 31.7954C30.406 31.7954 33.0755 31.178 35.4412 30.0111V33.0552C35.4412 33.4919 35.6672 33.8974 36.0386 34.127C36.4093 34.356 36.8732 34.3776 37.2642 34.1821L42.3036 31.6626C42.7305 31.449 43.0001 31.013 43.0001 30.5357V15.4181C43.0001 14.7223 42.4359 14.1583 41.7404 14.1583C39.7336 14.1583 34.8651 14.1583 33.0453 14.1583L24.1584 9.80985L27.5348 4.98795C27.9334 4.41843 27.7953 3.63239 27.2251 3.23346L23.0974 0.342884C22.5279 -0.0557151 21.7418 0.0824002 21.3429 0.652249C20.8095 1.41402 17.4055 6.27561 16.8757 7.03213C15.8423 6.48918 14.6032 6.4918 13.8171 6.83299L9.02343 8.91555C8.32859 9.21769 7.74627 9.71504 7.34013 10.3544L0.461266 21.174C0.0144417 21.8771 -0.170587 23.0834 0.192253 24.1722C0.51146 25.1298 1.18465 25.906 2.08781 26.3578ZM4.37672 31.472L4.79008 28.6854L5.91666 27.0762C6.39957 27.7812 7.05668 28.357 7.82567 28.7428L6.85394 30.1305L4.37672 31.472ZM11.3369 31.7958C10.6424 31.7958 10.0772 31.2305 10.0772 30.5357V29.9199L10.5283 29.2759H12.5967V30.5357C12.5967 31.2305 12.0318 31.7958 11.3369 31.7958ZM16.3763 31.7958C15.6815 31.7958 15.1166 31.2305 15.1166 30.5357V29.2759H17.6361V30.5357C17.6361 31.2305 17.0709 31.7958 16.3763 31.7958ZM40.4806 29.7572L37.9607 31.0169V16.6779H40.4806V29.7572ZM32.1999 16.5496C32.3725 16.6339 32.5618 16.6779 32.7537 16.6779H35.4412V27.2206C34.5921 27.5506 31.9558 29.2759 27.7146 29.2759C23.2185 29.2759 20.4493 27.2846 19.4592 26.8892C19.2794 26.7993 19.0812 26.7564 18.8959 26.7564H10.0772C8.78886 26.7564 7.72397 25.7843 7.57601 24.535C7.61538 24.3523 7.61177 24.1647 7.5701 23.9852C7.69674 22.7136 8.77279 21.7173 10.0772 21.7173H17.8523C20.4863 21.7173 22.9632 20.6914 24.826 18.8287C25.3178 18.3366 25.3178 17.5391 24.826 17.047C24.3339 16.5549 23.5364 16.5549 23.0443 17.047C21.6572 18.4337 19.8135 19.1978 17.8523 19.1978H17.5853L22.6952 11.8996L32.1999 16.5496ZM19.7938 7.25751L21.8577 8.70296L14.5093 19.1978H11.4334C12.5045 17.668 18.8112 8.66097 19.7938 7.25751ZM22.6841 3.12979L24.7482 4.57492L23.3028 6.6391L21.2389 5.19365L22.6841 3.12979ZM2.62813 22.462L9.46632 11.7064C9.60181 11.4932 9.79602 11.3275 10.0276 11.2268L14.7613 9.17012C14.9716 9.10845 15.1884 9.10418 15.3931 9.14978L8.0622 19.6193C6.51275 20.2981 5.3678 21.7337 5.09879 23.4567C4.86849 24.1036 3.86756 24.4304 3.21471 24.104C2.60025 23.7969 2.35617 23.0676 2.62813 22.462Z" fill="white"/>
</svg>
