<svg width="32" height="32" viewBox="0 0 32 32" fill="none" xmlns="http://www.w3.org/2000/svg">
<g clip-path="url(#clip0)">
<path d="M26.0625 25.1241H14.5133L13.6917 24.3025C13.3629 23.9737 13.0654 23.621 12.7998 23.2491H26.625C27.1427 23.2491 27.5625 22.8293 27.5625 22.3116C27.5625 21.7938 27.1427 21.3741 26.625 21.3741H11.7933C11.2117 19.8577 11.0718 18.1833 11.4287 16.5597C11.6936 16.4108 11.9369 16.2279 12.1527 16.0168L13.0366 16.7585C13.4458 17.1018 13.9446 17.2693 14.4409 17.2693C14.967 17.2693 15.4897 17.0803 15.8999 16.7134L18.0721 18.5361C18.2478 18.6835 18.4616 18.7555 18.6742 18.7555C18.9417 18.7555 19.2074 18.6415 19.3929 18.4206L21.8033 15.548C21.9632 15.3575 22.0408 15.1113 22.0191 14.8636C21.9974 14.616 21.8783 14.387 21.6877 14.2271L19.5162 12.405C19.7648 12.0056 19.8776 11.5388 19.8358 11.0619C19.7849 10.4798 19.5104 9.95246 19.0627 9.57683L10.9236 2.74721C10.4759 2.37165 9.90856 2.19271 9.32681 2.24377C8.84981 2.28546 8.40975 2.47758 8.05969 2.79177L6.60625 1.57221L6.63394 1.53921C6.96675 1.14258 6.91506 0.55121 6.51837 0.218397C6.12169 -0.114478 5.53038 -0.0626651 5.19763 0.33396L1.52656 4.70896C1.19375 5.10559 1.24544 5.69696 1.64213 6.02977C1.81781 6.17715 2.03156 6.24915 2.24425 6.24915C2.51175 6.24915 2.77744 6.13521 2.96287 5.91427L2.99056 5.88127L4.444 7.10083C4.19537 7.50015 4.08262 7.9669 4.12431 8.4439C4.17525 9.02596 4.44981 9.5534 4.89744 9.92896L6.91444 11.6214C6.53506 12.174 6.3125 12.8421 6.3125 13.5616C6.3125 13.7131 6.32338 13.862 6.3425 14.0084C5.19719 15.6966 4.58775 17.661 4.576 19.7164C4.56494 21.643 5.08131 23.4961 6.07587 25.1241H5.9375C2.66356 25.1241 0 27.7876 0 31.0616C0 31.5793 0.41975 31.9991 0.9375 31.9991H31.0625C31.5802 31.9991 32 31.5793 32 31.0616C32 27.7876 29.3364 25.1241 26.0625 25.1241ZM9.75 11.9991C10.6116 11.9991 11.3125 12.7 11.3125 13.5616C11.3125 14.4231 10.6116 15.1241 9.75 15.1241C8.88844 15.1241 8.1875 14.4231 8.1875 13.5616C8.1875 12.7 8.88844 11.9991 9.75 11.9991ZM18.5592 16.4971L17.1228 15.2919L18.3281 13.8555L19.7644 15.0608L18.5592 16.4971ZM5.401 3.00852L6.83738 4.21377L5.63212 5.65015L4.19581 4.4449L5.401 3.00852ZM5.99219 8.2804C5.988 8.23227 5.99169 8.13858 6.06406 8.05227L9.27806 4.22202C9.35038 4.13577 9.442 4.11584 9.49019 4.11159C9.53831 4.10727 9.63206 4.11108 9.71831 4.18352L17.8575 11.0131C17.9438 11.0856 17.9638 11.1772 17.968 11.2253C17.9722 11.2735 17.9685 11.3671 17.8961 11.4535L14.6822 15.2836C14.5713 15.4157 14.3737 15.4328 14.2419 15.3222L13.0933 14.3585C13.1543 14.1025 13.1875 13.836 13.1875 13.5616C13.1875 11.6661 11.6454 10.1241 9.75 10.1241C9.26506 10.1241 8.80356 10.2256 8.38481 10.4075L6.10262 8.49252C6.01631 8.42015 5.99644 8.32852 5.99219 8.2804ZM8.05975 24.7217C6.17806 22.1344 5.93994 18.7855 7.3385 16.0083C7.89256 16.5545 8.6305 16.9139 9.44987 16.9851C9.056 19.9076 9.94175 22.888 11.8947 25.124H8.35238L8.05975 24.7217ZM1.98419 30.1241C2.40844 28.3345 4.02 26.9991 5.9375 26.9991H26.0625C27.9801 26.9991 29.5916 28.3344 30.0158 30.1241H1.98419Z" fill="white"/>
</g>
<defs>
<clipPath id="clip0">
<rect width="32" height="32" fill="white"/>
</clipPath>
</defs>
</svg>
